#!OML:ASF H:\Not Pregnant\Project 1\Capture day 1\Session 1\non-pregnant.ASF
:FULLY-SPECIFIED
:DEGREES
918
root 15.1301 1.80982 31.447 -405.367 -112.188 -711.211
lowerback 21.3625 2.0466 6.81958
upperback 7.06862 3.53738 1.22682
thorax -3.82951 1.51542 -3.37462
lowerneck 12.7517 -4.63467 -30.3445
upperneck -0.272814 -13.8238 43.7788
head 3.68869 -9.41783 24.4784
rclavicle -7.25564e-015 -1.31198e-014
rhumerus -80.6994 -23.6671 -24.2314
rradius 23.9212
rwrist 9.80563
rhand -47.9103 -37.0801
rfingers 7.12502
rthumb -20.5822 -66.0089
lclavicle -7.25564e-015 -1.31198e-014
lhumerus -77.4696 18.317 44.8912
lradius 36.9204
lwrist 73.1414
lhand -57.3444 -61.5484
lfingers 7.12502
lthumb -29.6203 -33.8931
rfemur -115.376 -33.1413 71.6498
rtibia 101.808
rfoot 31.4126 8.3828
rtoes -34.0499
lfemur -133.872 36.4804 -80.0871
ltibia 125.166
lfoot 5.67496 -10.1475
ltoes -10.1423
919
root 15.1293 1.80998 31.4469 -405.264 -112.186 -711.316
lowerback 21.3718 2.02913 6.80883
upperback 7.06409 3.51142 1.188
thorax -3.83998 1.50263 -3.40493
lowerneck 12.7929 -4.60581 -30.4017
upperneck -0.181442 -13.8262 43.7572
head 3.70738 -9.4232 24.494
rclavicle 6.61953e-014 -8.74653e-015
rhumerus -80.6647 -23.7028 -24.2628
rradius 23.9204
rwrist 9.86703
rhand -47.932 -37.0627
rfingers 7.12502
rthumb -20.603 -65.9893
lclavicle 6.61953e-014 -8.74653e-015
lhumerus -77.5496 18.3462 44.7155
lradius 36.9114
lwrist 73.2547
lhand -57.1339 -61.4611
lfingers 7.12502
lthumb -29.4193 -33.7703
rfemur -115.22 -33.0144 71.4491
rtibia 101.774
rfoot 31.4902 8.22077
rtoes -33.4796
lfemur -133.88 36.4811 -80.1094
ltibia 125.171
lfoot 5.47226 -10.2151
ltoes -10.5243
920
root 15.1285 1.81009 31.4468 -405.159 -112.18 -711.424
lowerback 21.3828 2.01153 6.79508
upperback 7.059 3.4849 1.15023
thorax -3.85229 1.48946 -3.4324
lowerneck 12.8335 -4.57941 -30.4619
upperneck -0.0885764 -13.8342 43.7364
head 3.72989 -9.43175 24.5106
rclavicle -6.2319e-014 1.66979e-014
rhumerus -80.6251 -23.7367 -24.2915
rradius 23.9139
rwrist 9.93127
rhand -47.947 -37.0584
rfingers 7.12502
rthumb -20.6174 -65.9834
lclavicle -6.2319e-014 1.66979e-014
lhumerus -77.6648 18.4068 44.419
lradius 36.8599
lwrist 73.4928
lhand -56.6168 -61.3202
lfingers 7.12502
lthumb -28.9255 -33.5437
rfemur -115.066 -32.885 71.2399
rtibia 101.742
rfoot 31.5546 8.10576
rtoes -32.9786
lfemur -133.88 36.4815 -80.134
ltibia 125.175
lfoot 5.25165 -10.2897
ltoes -10.8758
921
root 15.1276 1.81015 31.4468 -405.076 -112.175 -711.509
lowerback 21.3955 1.99122 6.78936
upperback 7.05258 3.45691 1.11637
thorax -3.86676 1.47546 -3.45996
lowerneck 12.878 -4.55485 -30.5242
upperneck 0.00471056 -13.8473 43.7155
head 3.75453 -9.44358 24.5274
rclavicle 5.14852e-014 -2.38542e-015
rhumerus -80.5807 -23.7662 -24.3204
rradius 23.9032
rwrist 9.99251
rhand -47.9571 -37.0599
rfingers 7.12502
rthumb -20.6272 -65.9839
lclavicle 5.14852e-014 -2.38542e-015
lhumerus -77.7891 18.4687 44.1186
lradius 36.8056
lwrist 73.7599
lhand -56.0342 -61.2288
lfingers 7.12502
lthumb -28.3689 -33.3582
rfemur -114.912 -32.7557 71.0287
rtibia 101.714
rfoot 31.6023 8.00324
rtoes -32.5216
lfemur -133.879 36.4781 -80.1476
ltibia 125.179
lfoot 5.0726 -10.349
ltoes -11.1448
922
root 15.1272 1.81021 31.4467 -405.027 -112.176 -711.56
lowerback 21.4103 1.96929 6.79614
upperback 7.0447 3.42993 1.08814
thorax -3.88328 1.46185 -3.48887
lowerneck 12.9334 -4.53292 -30.5849
upperneck 0.0945381 -13.8673 43.6943
head 3.77897 -9.46007 24.5429
rclavicle -4.90998e-014 4.37326e-015
rhumerus -80.5461 -23.7867 -24.3557
rradius 23.9043
rwrist 10.0396
rhand -47.961 -37.0674
rfingers 7.12502
rthumb -20.6309 -65.991
lclavicle -4.90998e-014 4.37326e-015
lhumerus -77.939 18.5541 43.7116
lradius 36.7511
lwrist 74.0277
lhand -55.4059 -60.8434
lfingers 7.12502
lthumb -27.7683 -32.8744
rfemur -114.757 -32.6279 70.8229
rtibia 101.689
rfoot 31.6215 7.96085
rtoes -32.2015
lfemur -133.873 36.4737 -80.1457
ltibia 125.183
lfoot 4.9572 -10.3783
ltoes -11.2997
